<?xml version="1.0" encoding="UTF-8"?>
<svg id="a" xmlns="http://www.w3.org/2000/svg" width="100%" viewBox="0 0 629.29 150.24">
<g id="b"><path d="m150.95,82.93c-.27,0-.41-.14-.41-.4v-27.8c0-.3.14-.45.41-.45h2.85c.27,0,.41.15.41.45v24.49h19.96c.27,0,.41.14.41.41v2.9c0,.27-.14.4-.41.4h-23.22Z" style="fill:#fff;"/><path d="m184.95,82.93c-.24,0-.36-.14-.36-.4v-27.8c0-.3.12-.45.36-.45h2.22c.21,0,.32.15.32.45v27.8c0,.27-.11.4-.32.4h-2.22Z" style="fill:#fff;"/><path d="m230.78,78.45c-.44,1.15-1.14,2.07-2.1,2.76-.78.61-1.78,1.04-2.99,1.32-1.21.27-2.63.4-4.26.4h-21.05c-.27,0-.41-.14-.41-.4v-27.8c0-.3.13-.45.41-.45h19.73c6.64,0,9.96,2.45,9.96,7.33,0,2.87-.69,4.87-2.08,6.02,2.29,1.12,3.44,3.36,3.44,6.75,0,1.57-.22,2.92-.66,4.07Zm-5.63-19.44c-.88-.65-2.17-.97-3.89-.97h-17.61v8.1h17.65c1.78,0,3-.25,3.66-.77,1-.51,1.49-1.6,1.49-3.26,0-1.42-.44-2.45-1.31-3.1Zm1.31,11.66c-.42-.27-.97-.49-1.65-.63-.68-.15-1.5-.23-2.47-.23h-18.69v9.42h18.83c1.84,0,3.19-.4,4.05-1.2.86-.8,1.29-2.02,1.29-3.64,0-1.78-.45-3.02-1.36-3.71Z" style="fill:#fff;"/><path d="m244.11,82.93c-.27,0-.41-.14-.41-.4v-27.8c0-.3.13-.45.41-.45h24.17c.24,0,.36.15.36.45v2.86c0,.3-.12.45-.36.45h-20.91v8.28h20.23c.24,0,.36.15.36.46v2.85c0,.3-.12.46-.36.46h-20.23v9.14h20.91c.24,0,.36.14.36.41v2.9c0,.27-.12.4-.36.4h-24.17Z" style="fill:#fff;"/><path d="m307.89,82.93c-.27,0-.41-.14-.41-.4,0-.79.04-1.98.14-3.58.06-.78.1-1.45.13-2,.03-.54.05-.96.05-1.26,0-1-.09-1.83-.27-2.51-.18-.68-.42-1.23-.72-1.65-.45-.51-1.08-.88-1.88-1.11-.8-.23-1.79-.34-2.97-.34h-18.38v12.45c0,.27-.13.4-.41.4h-2.9c-.27,0-.41-.14-.41-.4v-27.8c0-.3.14-.45.41-.45h20.1c6.43,0,9.64,2.55,9.64,7.65,0,1.3-.17,2.41-.5,3.32-.33.92-.85,1.61-1.54,2.06,1.09.48,1.95,1.37,2.58,2.67.27.57.46,1.23.57,1.99.1.75.16,1.55.16,2.4v8.15c0,.27-.11.4-.32.4h-3.08Zm-6.74-24.72h-17.56v7.92h17.38c3.59,0,5.39-1.34,5.39-4.03s-1.74-3.9-5.21-3.9Z" style="fill:#fff;"/><path d="m352.34,82.93h-.27s-.02-.08-.04-.14l.04.05-3.39-6.65h-19.06l-3.35,6.65v-.05.14h-3.4c-.27,0-.41-.14-.41-.4v-.05c0-.06.03-.12.09-.18v.09l14.21-28.02c.06-.06.15-.09.27-.09h4.39c.09,0,.14.01.16.02.02.01.04.04.07.07l14.31,28.02v-.09c.03.06.04.12.04.18v.05c0,.27-.12.4-.36.4h-3.3Zm-20.82-10.32h15.25l-7.56-15.03-7.7,15.03Z" style="fill:#fff;"/><path d="m367.73,82.93c-.27,0-.41-.14-.41-.4v-27.8c0-.3.14-.45.41-.45h2.85c.27,0,.41.15.41.45v24.49h19.96c.27,0,.41.14.41.41v2.9c0,.27-.14.4-.41.4h-23.22Z" style="fill:#fff;"/><path d="m401.72,82.93c-.24,0-.36-.14-.36-.4v-27.8c0-.3.12-.45.36-.45h2.22c.21,0,.31.15.31.45v27.8c0,.27-.11.4-.31.4h-2.22Z" style="fill:#fff;"/><path d="m447.12,81.3c-.72.58-1.67.99-2.83,1.25-1.16.26-2.55.38-4.15.38h-14.03c-2.84,0-5.04-.65-6.61-1.95-1.84-1.45-2.76-3.56-2.76-6.34,0-.27.12-.41.36-.41h2.85c.27,0,.41.14.41.41.03.91.2,1.68.5,2.3.3.64.8,1.12,1.49,1.45.48.24,1.12.44,1.9.59.79.15,1.71.23,2.76.23h12.99c1.03,0,1.89-.08,2.58-.23.69-.15,1.27-.36,1.72-.63.6-.36,1.03-.86,1.27-1.5.24-.63.36-1.39.36-2.26,0-1.84-.83-3.09-2.49-3.76-.66-.3-1.54-.51-2.63-.64-1.08-.12-2.36-.18-3.8-.18h-1.09c-.39,0-.86.01-1.41.05h-1.54c-.06,0-.14,0-.23.02-.09.01-.2.02-.31.02h-.59c-.63.03-1.19.04-1.68.04h-1.18c-3.86,0-6.74-.45-8.64-1.36-2.57-1.21-3.85-3.44-3.85-6.7,0-5.22,2.94-7.83,8.83-7.83h14.3c6.46,0,9.69,2.76,9.69,8.28,0,.24-.11.37-.32.37h-2.94c-.24,0-.36-.12-.36-.37-.03-.87-.2-1.63-.5-2.28-.3-.65-.8-1.14-1.49-1.47-1.02-.51-2.56-.77-4.62-.77h-13.85c-.94,0-1.71.08-2.33.23-.62.15-1.11.35-1.47.59-.84.55-1.27,1.64-1.27,3.31s.83,2.82,2.49,3.49c1.39.57,3.51.86,6.38.86h1.4c.63,0,1.39-.02,2.26-.05.09,0,.19,0,.29-.02.11-.02.22-.02.34-.02h.58c.55-.03,1.03-.04,1.45-.04h.99c2.05,0,3.83.12,5.34.36,1.51.24,2.78.59,3.8,1.04,2.69,1.33,4.03,3.64,4.03,6.93,0,3.05-.81,5.25-2.45,6.61Z" style="fill:#fff;"/><path d="m477.18,58.04v24.49c0,.27-.13.4-.4.4h-2.86c-.24,0-.36-.14-.36-.4v-24.49h-12.9c-.3,0-.45-.15-.45-.45v-2.86c0-.3.15-.45.45-.45h29.47c.29,0,.45.15.45.45v2.86c0,.3-.16.45-.45.45h-12.95Z" style="fill:#fff;"/><path d="m501.9,82.93c-.27,0-.41-.14-.41-.4v-27.8c0-.3.14-.45.41-.45h24.17c.24,0,.36.15.36.45v2.86c0,.3-.12.45-.36.45h-20.91v8.28h20.23c.24,0,.36.15.36.46v2.85c0,.3-.12.46-.36.46h-20.23v9.14h20.91c.24,0,.36.14.36.41v2.9c0,.27-.12.4-.36.4h-24.17Z" style="fill:#fff;"/><path d="m564.18,82.93c-.15,0-.24-.05-.27-.14l-21.69-25.48h-.9v25.22c0,.27-.14.4-.41.4h-2.85c-.27,0-.41-.14-.41-.4v-27.8c0-.3.14-.45.41-.45h6.29c.09,0,.19.06.31.18l20.28,24.13v-23.86c0-.3.15-.45.46-.45h2.85c.27,0,.41.15.41.45v27.8c0,.27-.13.4-.41.4h-4.08Z" style="fill:#fff;"/><path d="m581.74,82.93c-.27,0-.41-.14-.41-.4v-27.8c0-.3.14-.45.41-.45h24.17c.24,0,.36.15.36.45v2.86c0,.3-.12.45-.36.45h-20.91v8.28h20.23c.24,0,.36.15.36.46v2.85c0,.3-.12.46-.36.46h-20.23v9.14h20.91c.24,0,.36.14.36.41v2.9c0,.27-.12.4-.36.4h-24.17Z" style="fill:#fff;"/><path d="m166.38,109.05c-.17.86-.46,1.5-.85,1.95-.41.46-1.04.8-1.89,1.05-.85.24-1.92.36-3.21.36h-9.56c-.14,0-.2-.07-.2-.21v-13.98c0-.15.07-.23.2-.23h9.15c1.96,0,3.42.27,4.4.8,1,.53,1.65,1.39,1.93,2.57.08.44.14,1.03.2,1.75.06.73.09,1.62.09,2.69,0,1.3-.09,2.39-.26,3.24Zm-1.56-4.43c0-1.99-.28-3.27-.84-3.85-.59-.59-1.84-.89-3.75-.89h-7.72v10.66h8.08c1.43,0,2.4-.13,2.94-.39.56-.2.92-.64,1.07-1.32.09-.26.15-.64.18-1.16.03-.52.04-1.14.04-1.87v-1.18Z" style="fill:#fff;"/><path d="m172.88,112.41c-.12,0-.18-.07-.18-.21v-13.98c0-.15.06-.23.18-.23h1.11c.11,0,.16.08.16.23v13.98c0,.14-.05.21-.16.21h-1.11Z" style="fill:#fff;"/><path d="m188.13,99.89v12.32c0,.14-.07.21-.21.21h-1.43c-.12,0-.18-.07-.18-.21v-12.32h-6.49c-.15,0-.23-.07-.23-.23v-1.43c0-.15.08-.23.23-.23h14.82c.15,0,.23.08.23.23v1.43c0,.15-.08.23-.23.23h-6.51Z" style="fill:#fff;"/><path d="m208.02,99.89v12.32c0,.14-.07.21-.21.21h-1.43c-.12,0-.18-.07-.18-.21v-12.32h-6.49c-.15,0-.23-.07-.23-.23v-1.43c0-.15.08-.23.23-.23h14.82c.15,0,.23.08.23.23v1.43c0,.15-.08.23-.23.23h-6.51Z" style="fill:#fff;"/><path d="m230.54,112.41c-.13,0-.2-.07-.2-.21v-13.98c0-.15.07-.23.2-.23h1.44c.14,0,.21.08.21.23v12.32h10.04c.14,0,.2.07.2.2v1.46c0,.14-.07.21-.2.21h-11.68Z" style="fill:#fff;"/><path d="m247.64,112.41c-.12,0-.18-.07-.18-.21v-13.98c0-.15.06-.23.18-.23h1.11c.11,0,.16.08.16.23v13.98c0,.14-.05.21-.16.21h-1.11Z" style="fill:#fff;"/><path d="m264.05,112.36s-.08.05-.14.05h-2.02c-.06,0-.11-.02-.14-.05l-7.15-14.07v.04s-.04-.07-.04-.13c0-.05.02-.09.06-.14.04-.05.09-.07.15-.07h1.64c.08,0,.11,0,.1.02,0,.01,0,.03.01.05l6.31,12.36h.11l6.38-12.38s.03-.05.09-.05h1.64c.08,0,.13.02.17.07.04.05.06.09.06.14,0,.06-.01.11-.04.13v-.04l-7.17,14.07Zm-7.54-14.32l.03.02h-.03v-.02Z" style="fill:#fff;"/><path d="m272.23,113.85c-.1.19-.25.36-.44.51h-.64c-.12,0-.18-.06-.18-.18,0-.03,0-.06.01-.08,0-.02.04-.05.1-.08h-.02c.14-.09.23-.21.29-.36.05-.15.08-.32.08-.5v-.75h-.45c-.11,0-.16-.07-.16-.21v-1.46c0-.12.05-.18.16-.18h1.23s.07.01.11.04c.05.02.07.07.07.15v2.41c0,.27-.05.5-.15.7Z" style="fill:#fff;"/><path d="m304.36,109.05c-.18.86-.46,1.5-.85,1.95-.41.46-1.04.8-1.89,1.05-.85.24-1.92.36-3.21.36h-9.56c-.14,0-.2-.07-.2-.21v-13.98c0-.15.07-.23.2-.23h9.15c1.96,0,3.42.27,4.39.8,1,.53,1.65,1.39,1.93,2.57.08.44.14,1.03.21,1.75.06.73.09,1.62.09,2.69,0,1.3-.09,2.39-.26,3.24Zm-1.56-4.43c0-1.99-.28-3.27-.84-3.85-.59-.59-1.84-.89-3.76-.89h-7.72v10.66h8.08c1.43,0,2.4-.13,2.93-.39.56-.2.92-.64,1.07-1.32.09-.26.15-.64.18-1.16.03-.52.05-1.14.05-1.87v-1.18Z" style="fill:#fff;"/><path d="m310.85,112.41c-.12,0-.18-.07-.18-.21v-13.98c0-.15.06-.23.18-.23h1.12c.1,0,.16.08.16.23v13.98c0,.14-.05.21-.16.21h-1.12Z" style="fill:#fff;"/><path d="m326.11,99.89v12.32c0,.14-.07.21-.21.21h-1.43c-.12,0-.18-.07-.18-.21v-12.32h-6.49c-.15,0-.23-.07-.23-.23v-1.43c0-.15.08-.23.23-.23h14.82c.15,0,.23.08.23.23v1.43c0,.15-.08.23-.23.23h-6.51Z" style="fill:#fff;"/><path d="m346.01,99.89v12.32c0,.14-.07.21-.2.21h-1.44c-.12,0-.18-.07-.18-.21v-12.32h-6.49c-.15,0-.23-.07-.23-.23v-1.43c0-.15.07-.23.23-.23h14.82c.15,0,.22.08.22.23v1.43c0,.15-.08.23-.22.23h-6.51Z" style="fill:#fff;"/><path d="m377.15,112.36s-.08.05-.13.05h-2.03c-.06,0-.1-.02-.13-.05l-7.15-14.07v.04s-.04-.07-.04-.13c0-.05.02-.09.06-.14.04-.05.09-.07.15-.07h1.64c.07,0,.11,0,.1.02,0,.01,0,.03.01.05l6.3,12.36h.12l6.37-12.38s.03-.05.09-.05h1.64c.08,0,.13.02.17.07.04.05.06.09.06.14,0,.06-.02.11-.05.13v-.04l-7.17,14.07Zm-7.54-14.32l.02.02h-.02v-.02Z" style="fill:#fff;"/><path d="m398.93,112.41h-.13s0-.04-.02-.07l.02.02-1.71-3.35h-9.59l-1.68,3.35v-.02.07h-1.71c-.14,0-.21-.07-.21-.21v-.02s.02-.06.05-.09v.05l7.15-14.09s.08-.05.14-.05h2.21s.07,0,.08.01c0,0,.02.02.03.04l7.19,14.09v-.05s.02.06.02.09v.02c0,.14-.06.21-.18.21h-1.66Zm-10.47-5.19h7.67l-3.8-7.56-3.87,7.56Z" style="fill:#fff;"/><path d="m406.67,112.41c-.13,0-.2-.07-.2-.21v-13.98c0-.15.07-.23.2-.23h1.44c.14,0,.21.08.21.23v12.32h10.04c.14,0,.21.07.21.2v1.46c0,.14-.07.21-.21.21h-11.68Z" style="fill:#fff;"/><path d="m440.18,105.51s.02.05.02.09c0,.9-.01,1.65-.04,2.28-.03.62-.08,1.09-.13,1.41-.18,1.05-.65,1.84-1.39,2.37-.38.26-.87.45-1.46.57-.59.12-1.29.18-2.11.18h-5.12c-1,0-1.86-.07-2.58-.19-.72-.13-1.32-.34-1.79-.63-.43-.29-.78-.65-1.07-1.08-.29-.43-.49-.96-.61-1.58-.06-.38-.11-.93-.14-1.66-.03-.73-.04-1.65-.04-2.78,0-2.6.46-4.35,1.39-5.26h-.02c.93-.91,2.67-1.37,5.24-1.37h4.76c1.7,0,2.98.34,3.83,1.03.86.68,1.29,1.72,1.29,3.1v.04c0,.14-.06.21-.18.21h-1.44c-.13,0-.2-.07-.2-.21-.01-.44-.09-.82-.24-1.14-.14-.32-.39-.57-.74-.75-.26-.12-.58-.22-.97-.3-.39-.08-.84-.11-1.35-.11h-4.9c-.83,0-1.53.05-2.1.16-.56.11-1,.24-1.32.41-.58.35-.95.99-1.12,1.94-.09.5-.13,1.69-.13,3.57,0,1.99.23,3.27.68,3.85.53.61,1.73.91,3.6.91h5.28c1.35,0,2.23-.23,2.64-.68.18-.21.33-.54.43-.97.11-.43.16-.99.16-1.67h-6.53c-.15,0-.23-.08-.23-.23v-1.41c0-.15.08-.23.23-.23h8.27s.03,0,.04.02l.11.11Z" style="fill:#fff;"/><path d="m446.33,109.02c-.12,0-.18-.07-.18-.2v-10.59c0-.15.06-.23.18-.23h1.12s.07.02.11.06c.04.04.07.09.07.17v10.59c0,.06-.03.11-.07.15-.04.04-.08.06-.11.06h-1.12Zm0,3.39c-.12,0-.18-.07-.18-.21v-1.59c0-.12.06-.18.18-.18h1.12s.07.02.11.05.07.08.07.14v1.59c0,.06-.03.11-.07.15-.04.04-.08.06-.11.06h-1.12Z" style="fill:#fff;"/></g><path d="m142.95,82.93c-.27,0-.41-.14-.41-.4v-27.8c0-.3.14-.45.41-.45h2.85c.27,0,.41.15.41.45v24.49h19.96c.27,0,.41.14.41.41v2.9c0,.27-.14.4-.41.4h-23.22Z" style="fill:#49154a;"/><path d="m176.95,82.93c-.24,0-.36-.14-.36-.4v-27.8c0-.3.12-.45.36-.45h2.22c.21,0,.32.15.32.45v27.8c0,.27-.11.4-.32.4h-2.22Z" style="fill:#49154a;"/><path d="m222.78,78.45c-.44,1.15-1.14,2.07-2.1,2.76-.78.61-1.78,1.04-2.99,1.32-1.21.27-2.63.4-4.26.4h-21.05c-.27,0-.41-.14-.41-.4v-27.8c0-.3.13-.45.41-.45h19.73c6.64,0,9.96,2.45,9.96,7.33,0,2.87-.69,4.87-2.08,6.02,2.29,1.12,3.44,3.36,3.44,6.75,0,1.57-.22,2.92-.66,4.07Zm-5.63-19.44c-.88-.65-2.17-.97-3.89-.97h-17.61v8.1h17.65c1.78,0,3-.25,3.66-.77,1-.51,1.49-1.6,1.49-3.26,0-1.42-.44-2.45-1.31-3.1Zm1.31,11.66c-.42-.27-.97-.49-1.65-.63-.68-.15-1.5-.23-2.47-.23h-18.69v9.42h18.83c1.84,0,3.19-.4,4.05-1.2.86-.8,1.29-2.02,1.29-3.64,0-1.78-.45-3.02-1.36-3.71Z" style="fill:#49154a;"/><path d="m236.11,82.93c-.27,0-.41-.14-.41-.4v-27.8c0-.3.13-.45.41-.45h24.17c.24,0,.36.15.36.45v2.86c0,.3-.12.45-.36.45h-20.91v8.28h20.23c.24,0,.36.15.36.46v2.85c0,.3-.12.46-.36.46h-20.23v9.14h20.91c.24,0,.36.14.36.41v2.9c0,.27-.12.4-.36.4h-24.17Z" style="fill:#49154a;"/><path d="m299.89,82.93c-.27,0-.41-.14-.41-.4,0-.79.04-1.98.14-3.58.06-.78.1-1.45.13-2,.03-.54.05-.96.05-1.26,0-1-.09-1.83-.27-2.51-.18-.68-.42-1.23-.72-1.65-.45-.51-1.08-.88-1.88-1.11-.8-.23-1.79-.34-2.97-.34h-18.38v12.45c0,.27-.13.4-.41.4h-2.9c-.27,0-.41-.14-.41-.4v-27.8c0-.3.14-.45.41-.45h20.1c6.43,0,9.64,2.55,9.64,7.65,0,1.3-.17,2.41-.5,3.32-.33.92-.85,1.61-1.54,2.06,1.09.48,1.95,1.37,2.58,2.67.27.57.46,1.23.57,1.99.1.75.16,1.55.16,2.4v8.15c0,.27-.11.4-.32.4h-3.08Zm-6.74-24.72h-17.56v7.92h17.38c3.59,0,5.39-1.34,5.39-4.03s-1.74-3.9-5.21-3.9Z" style="fill:#49154a;"/><path d="m344.34,82.93h-.27s-.02-.08-.04-.14l.04.05-3.39-6.65h-19.06l-3.35,6.65v-.05.14h-3.4c-.27,0-.41-.14-.41-.4v-.05c0-.06.03-.12.09-.18v.09l14.21-28.02c.06-.06.15-.09.27-.09h4.39c.09,0,.14.01.16.02.02.01.04.04.07.07l14.31,28.02v-.09c.03.06.04.12.04.18v.05c0,.27-.12.4-.36.4h-3.3Zm-20.82-10.32h15.25l-7.56-15.03-7.7,15.03Z" style="fill:#49154a;"/><path d="m359.73,82.93c-.27,0-.41-.14-.41-.4v-27.8c0-.3.14-.45.41-.45h2.85c.27,0,.41.15.41.45v24.49h19.96c.27,0,.41.14.41.41v2.9c0,.27-.14.4-.41.4h-23.22Z" style="fill:#49154a;"/><path d="m393.72,82.93c-.24,0-.36-.14-.36-.4v-27.8c0-.3.12-.45.36-.45h2.22c.21,0,.31.15.31.45v27.8c0,.27-.11.4-.31.4h-2.22Z" style="fill:#49154a;"/><path d="m439.12,81.3c-.72.58-1.67.99-2.83,1.25-1.16.26-2.55.38-4.15.38h-14.03c-2.84,0-5.04-.65-6.61-1.95-1.84-1.45-2.76-3.56-2.76-6.34,0-.27.12-.41.36-.41h2.85c.27,0,.41.14.41.41.03.91.2,1.68.5,2.3.3.64.8,1.12,1.49,1.45.48.24,1.12.44,1.9.59.79.15,1.71.23,2.76.23h12.99c1.03,0,1.89-.08,2.58-.23.69-.15,1.27-.36,1.72-.63.6-.36,1.03-.86,1.27-1.5.24-.63.36-1.39.36-2.26,0-1.84-.83-3.09-2.49-3.76-.66-.3-1.54-.51-2.63-.64-1.08-.12-2.36-.18-3.8-.18h-1.09c-.39,0-.86.01-1.41.05h-1.54c-.06,0-.14,0-.23.02-.09.01-.2.02-.31.02h-.59c-.63.03-1.19.04-1.68.04h-1.18c-3.86,0-6.74-.45-8.64-1.36-2.57-1.21-3.85-3.44-3.85-6.7,0-5.22,2.94-7.83,8.83-7.83h14.3c6.46,0,9.69,2.76,9.69,8.28,0,.24-.11.37-.32.37h-2.94c-.24,0-.36-.12-.36-.37-.03-.87-.2-1.63-.5-2.28-.3-.65-.8-1.14-1.49-1.47-1.02-.51-2.56-.77-4.62-.77h-13.85c-.94,0-1.71.08-2.33.23-.62.15-1.11.35-1.47.59-.84.55-1.27,1.64-1.27,3.31s.83,2.82,2.49,3.49c1.39.57,3.51.86,6.38.86h1.4c.63,0,1.39-.02,2.26-.05.09,0,.19,0,.29-.02.11-.02.22-.02.34-.02h.58c.55-.03,1.03-.04,1.45-.04h.99c2.05,0,3.83.12,5.34.36,1.51.24,2.78.59,3.8,1.04,2.69,1.33,4.03,3.64,4.03,6.93,0,3.05-.81,5.25-2.45,6.61Z" style="fill:#49154a;"/><path d="m469.18,58.04v24.49c0,.27-.13.4-.4.4h-2.86c-.24,0-.36-.14-.36-.4v-24.49h-12.9c-.3,0-.45-.15-.45-.45v-2.86c0-.3.15-.45.45-.45h29.47c.29,0,.45.15.45.45v2.86c0,.3-.16.45-.45.45h-12.95Z" style="fill:#49154a;"/><path d="m493.9,82.93c-.27,0-.41-.14-.41-.4v-27.8c0-.3.14-.45.41-.45h24.17c.24,0,.36.15.36.45v2.86c0,.3-.12.45-.36.45h-20.91v8.28h20.23c.24,0,.36.15.36.46v2.85c0,.3-.12.46-.36.46h-20.23v9.14h20.91c.24,0,.36.14.36.41v2.9c0,.27-.12.4-.36.4h-24.17Z" style="fill:#49154a;"/><path d="m556.18,82.93c-.15,0-.24-.05-.27-.14l-21.69-25.48h-.9v25.22c0,.27-.14.4-.41.4h-2.85c-.27,0-.41-.14-.41-.4v-27.8c0-.3.14-.45.41-.45h6.29c.09,0,.19.06.31.18l20.28,24.13v-23.86c0-.3.15-.45.46-.45h2.85c.27,0,.41.15.41.45v27.8c0,.27-.13.4-.41.4h-4.08Z" style="fill:#49154a;"/><path d="m573.74,82.93c-.27,0-.41-.14-.41-.4v-27.8c0-.3.14-.45.41-.45h24.17c.24,0,.36.15.36.45v2.86c0,.3-.12.45-.36.45h-20.91v8.28h20.23c.24,0,.36.15.36.46v2.85c0,.3-.12.46-.36.46h-20.23v9.14h20.91c.24,0,.36.14.36.41v2.9c0,.27-.12.4-.36.4h-24.17Z" style="fill:#49154a;"/><path d="m158.38,109.05c-.17.86-.46,1.5-.85,1.95-.41.46-1.04.8-1.89,1.05-.85.24-1.92.36-3.21.36h-9.56c-.14,0-.2-.07-.2-.21v-13.98c0-.15.07-.23.2-.23h9.15c1.96,0,3.42.27,4.4.8,1,.53,1.65,1.39,1.93,2.57.08.44.14,1.03.2,1.75.06.73.09,1.62.09,2.69,0,1.3-.09,2.39-.26,3.24Zm-1.56-4.43c0-1.99-.28-3.27-.84-3.85-.59-.59-1.84-.89-3.75-.89h-7.72v10.66h8.08c1.43,0,2.4-.13,2.94-.39.56-.2.92-.64,1.07-1.32.09-.26.15-.64.18-1.16.03-.52.04-1.14.04-1.87v-1.18Z" style="fill:#49154a;"/><path d="m164.88,112.41c-.12,0-.18-.07-.18-.21v-13.98c0-.15.06-.23.18-.23h1.11c.11,0,.16.08.16.23v13.98c0,.14-.05.21-.16.21h-1.11Z" style="fill:#49154a;"/><path d="m180.13,99.89v12.32c0,.14-.07.21-.21.21h-1.43c-.12,0-.18-.07-.18-.21v-12.32h-6.49c-.15,0-.23-.07-.23-.23v-1.43c0-.15.08-.23.23-.23h14.82c.15,0,.23.08.23.23v1.43c0,.15-.08.23-.23.23h-6.51Z" style="fill:#49154a;"/><path d="m200.02,99.89v12.32c0,.14-.07.21-.21.21h-1.43c-.12,0-.18-.07-.18-.21v-12.32h-6.49c-.15,0-.23-.07-.23-.23v-1.43c0-.15.08-.23.23-.23h14.82c.15,0,.23.08.23.23v1.43c0,.15-.08.23-.23.23h-6.51Z" style="fill:#49154a;"/><path d="m222.54,112.41c-.13,0-.2-.07-.2-.21v-13.98c0-.15.07-.23.2-.23h1.44c.14,0,.21.08.21.23v12.32h10.04c.14,0,.2.07.2.2v1.46c0,.14-.07.21-.2.21h-11.68Z" style="fill:#49154a;"/><path d="m239.64,112.41c-.12,0-.18-.07-.18-.21v-13.98c0-.15.06-.23.18-.23h1.11c.11,0,.16.08.16.23v13.98c0,.14-.05.21-.16.21h-1.11Z" style="fill:#49154a;"/><path d="m256.05,112.36s-.08.05-.14.05h-2.02c-.06,0-.11-.02-.14-.05l-7.15-14.07v.04s-.04-.07-.04-.13c0-.05.02-.09.06-.14.04-.05.09-.07.15-.07h1.64c.08,0,.11,0,.1.02,0,.01,0,.03.01.05l6.31,12.36h.11l6.38-12.38s.03-.05.09-.05h1.64c.08,0,.13.02.17.07.04.05.06.09.06.14,0,.06-.01.11-.04.13v-.04l-7.17,14.07Zm-7.54-14.32l.03.02h-.03v-.02Z" style="fill:#49154a;"/><path d="m264.23,113.85c-.1.19-.25.36-.44.51h-.64c-.12,0-.18-.06-.18-.18,0-.03,0-.06.01-.08,0-.02.04-.05.1-.08h-.02c.14-.09.23-.21.29-.36.05-.15.08-.32.08-.5v-.75h-.45c-.11,0-.16-.07-.16-.21v-1.46c0-.12.05-.18.16-.18h1.23s.07.01.11.04c.05.02.07.07.07.15v2.41c0,.27-.05.5-.15.7Z" style="fill:#49154a;"/><path d="m296.36,109.05c-.18.86-.46,1.5-.85,1.95-.41.46-1.04.8-1.89,1.05-.85.24-1.92.36-3.21.36h-9.56c-.14,0-.2-.07-.2-.21v-13.98c0-.15.07-.23.2-.23h9.15c1.96,0,3.42.27,4.39.8,1,.53,1.65,1.39,1.93,2.57.08.44.14,1.03.21,1.75.06.73.09,1.62.09,2.69,0,1.3-.09,2.39-.26,3.24Zm-1.56-4.43c0-1.99-.28-3.27-.84-3.85-.59-.59-1.84-.89-3.76-.89h-7.72v10.66h8.08c1.43,0,2.4-.13,2.93-.39.56-.2.92-.64,1.07-1.32.09-.26.15-.64.18-1.16.03-.52.05-1.14.05-1.87v-1.18Z" style="fill:#49154a;"/><path d="m302.85,112.41c-.12,0-.18-.07-.18-.21v-13.98c0-.15.06-.23.18-.23h1.12c.1,0,.16.08.16.23v13.98c0,.14-.05.21-.16.21h-1.12Z" style="fill:#49154a;"/><path d="m318.11,99.89v12.32c0,.14-.07.21-.21.21h-1.43c-.12,0-.18-.07-.18-.21v-12.32h-6.49c-.15,0-.23-.07-.23-.23v-1.43c0-.15.08-.23.23-.23h14.82c.15,0,.23.08.23.23v1.43c0,.15-.08.23-.23.23h-6.51Z" style="fill:#49154a;"/><path d="m338.01,99.89v12.32c0,.14-.07.21-.2.21h-1.44c-.12,0-.18-.07-.18-.21v-12.32h-6.49c-.15,0-.23-.07-.23-.23v-1.43c0-.15.07-.23.23-.23h14.82c.15,0,.22.08.22.23v1.43c0,.15-.08.23-.22.23h-6.51Z" style="fill:#49154a;"/><path d="m369.15,112.36s-.08.05-.13.05h-2.03c-.06,0-.1-.02-.13-.05l-7.15-14.07v.04s-.04-.07-.04-.13c0-.05.02-.09.06-.14.04-.05.09-.07.15-.07h1.64c.07,0,.11,0,.1.02,0,.01,0,.03.01.05l6.3,12.36h.12l6.37-12.38s.03-.05.09-.05h1.64c.08,0,.13.02.17.07.04.05.06.09.06.14,0,.06-.02.11-.05.13v-.04l-7.17,14.07Zm-7.54-14.32l.02.02h-.02v-.02Z" style="fill:#49154a;"/><path d="m390.93,112.41h-.13s0-.04-.02-.07l.02.02-1.71-3.35h-9.59l-1.68,3.35v-.02.07h-1.71c-.14,0-.21-.07-.21-.21v-.02s.02-.06.05-.09v.05l7.15-14.09s.08-.05.14-.05h2.21s.07,0,.08.01c0,0,.02.02.03.04l7.19,14.09v-.05s.02.06.02.09v.02c0,.14-.06.21-.18.21h-1.66Zm-10.47-5.19h7.67l-3.8-7.56-3.87,7.56Z" style="fill:#49154a;"/><path d="m398.67,112.41c-.13,0-.2-.07-.2-.21v-13.98c0-.15.07-.23.2-.23h1.44c.14,0,.21.08.21.23v12.32h10.04c.14,0,.21.07.21.2v1.46c0,.14-.07.21-.21.21h-11.68Z" style="fill:#49154a;"/><path d="m432.18,105.51s.02.05.02.09c0,.9-.01,1.65-.04,2.28-.03.62-.08,1.09-.13,1.41-.18,1.05-.65,1.84-1.39,2.37-.38.26-.87.45-1.46.57-.59.12-1.29.18-2.11.18h-5.12c-1,0-1.86-.07-2.58-.19-.72-.13-1.32-.34-1.79-.63-.43-.29-.78-.65-1.07-1.08-.29-.43-.49-.96-.61-1.58-.06-.38-.11-.93-.14-1.66-.03-.73-.04-1.65-.04-2.78,0-2.6.46-4.35,1.39-5.26h-.02c.93-.91,2.67-1.37,5.24-1.37h4.76c1.7,0,2.98.34,3.83,1.03.86.68,1.29,1.72,1.29,3.1v.04c0,.14-.06.21-.18.21h-1.44c-.13,0-.2-.07-.2-.21-.01-.44-.09-.82-.24-1.14-.14-.32-.39-.57-.74-.75-.26-.12-.58-.22-.97-.3-.39-.08-.84-.11-1.35-.11h-4.9c-.83,0-1.53.05-2.1.16-.56.11-1,.24-1.32.41-.58.35-.95.99-1.12,1.94-.09.5-.13,1.69-.13,3.57,0,1.99.23,3.27.68,3.85.53.61,1.73.91,3.6.91h5.28c1.35,0,2.23-.23,2.64-.68.18-.21.33-.54.43-.97.11-.43.16-.99.16-1.67h-6.53c-.15,0-.23-.08-.23-.23v-1.41c0-.15.08-.23.23-.23h8.27s.03,0,.04.02l.11.11Z" style="fill:#49154a;"/><path d="m438.33,109.02c-.12,0-.18-.07-.18-.2v-10.59c0-.15.06-.23.18-.23h1.12s.07.02.11.06c.04.04.07.09.07.17v10.59c0,.06-.03.11-.07.15-.04.04-.08.06-.11.06h-1.12Zm0,3.39c-.12,0-.18-.07-.18-.21v-1.59c0-.12.06-.18.18-.18h1.12s.07.02.11.05.07.08.07.14v1.59c0,.06-.03.11-.07.15-.04.04-.08.06-.11.06h-1.12Z" style="fill:#49154a;"/><circle id="c" cx="68.3" cy="75" r="59.05" style="fill:#fff;"/><path d="m68.61,17.66c-19.66-.17-35.74,15.63-35.91,35.29-.12,13.38,7.17,25.1,18.04,31.28-1.45-1.25-2.65-2.68-3.22-3.77-2.06-3.99-1.72-8.76.34-12.68,2.62-4.97,16.97-16.01,11.02-21.68,5.43,2.18,9.42,7.16,9.78,16.16,4.33-6.6,6.32-10.97-.72-17.43-4.32-3.96-6.95-13.26-.04-17.1-3.44,6.81,4.68,11.57,8.83,15.31,5.07,4.57,11.59,14.05,13.36,20.56,1.85,6.8.72,15.17-4.14,20.57,10.63-6.08,17.84-17.48,17.95-30.6.17-19.66-15.63-35.74-35.29-35.91Zm17.26,70.82h-35.41c-2.33,0-4.23,1.89-4.23,4.23v1.5c0,2.34,1.89,4.23,4.23,4.23h.39l5.35,17.06c-1.12.76-1.85,2.04-1.85,3.49v1.87c0,2.34,1.89,4.23,4.23,4.23h.87c.42,4.21,3.94,7.51,8.26,7.51s7.84-3.3,8.26-7.51h1.43c2.33,0,4.23-1.89,4.23-4.23v-1.87c0-1.58-.88-2.94-2.16-3.66l5.29-16.88h1.12c2.33,0,4.23-1.89,4.23-4.23v-1.5c0-2.33-1.89-4.23-4.23-4.23Zm-12.89,36.3c-.28,2.74-2.55,4.81-5.28,4.81-.64,0-1.25-.12-1.82-.33,1.87-.68,3.25-2.38,3.47-4.48l.27-2.7h3.63l-.27,2.7Zm2.89-8.05l2.11,1.19c.4.22.64.62.64,1.06v1.87c0,.68-.55,1.23-1.23,1.23h-3.63c.68,0,1.23-.55,1.23-1.23v-1.87c0-.44-.24-.83-.64-1.06l-2.11-1.19,4.67-16.16-9.5-2.09h14.19l-5.72,18.25Z" style="fill:#49154a;"/></svg>
