<?xml version="1.0" encoding="iso-8859-1"?>
<!-- Generator: Adobe Illustrator 19.0.0, SVG Export Plug-In . SVG Version: 6.00 Build 0)  -->
<svg version="1.1" id="Capa_1" xmlns="http://www.w3.org/2000/svg" xmlns:xlink="http://www.w3.org/1999/xlink" x="0px" y="0px"
	 viewBox="0 0 512 512" style="enable-background:new 0 0 512 512;" xml:space="preserve">
<g>
	<g>
		<path d="M477.658,137.37c4.198-7.005,6.618-15.193,6.618-23.937c0-25.758-20.955-46.715-46.714-46.715
			c-24.696,0-44.965,19.267-46.596,43.558c2.726,8.323,4.712,17.013,5.875,26.006c0.216,0.384,0.432,0.768,0.658,1.145
			c-0.159,0.084-0.323,0.162-0.481,0.247c2.937,24.606-0.51,49.005-9.814,71.28h124.794v-15.01
			C512,169.385,498.046,148.037,477.658,137.37z"/>
	</g>
</g>
<g>
	<g>
		<path d="M296.583,397.763c4.198-7.006,6.619-15.193,6.619-23.937c0-25.758-20.956-46.714-46.715-46.714
			s-46.715,20.956-46.715,46.714c0,8.768,2.433,16.978,6.653,23.996c-20.325,10.686-34.226,32.002-34.226,56.517v15.01h148.724
			v-15.01C330.924,429.779,316.972,408.43,296.583,397.763z"/>
	</g>
</g>
<g>
	<g>
		<path d="M477.658,397.762c4.198-7.005,6.619-15.193,6.619-23.937c0-25.758-20.955-46.714-46.714-46.714
			s-46.715,20.956-46.715,46.714c0,8.768,2.433,16.978,6.653,23.996c-20.325,10.686-34.226,32.002-34.226,56.517v15.01H512v-15.01
			C512,429.779,498.046,408.429,477.658,397.762z"/>
	</g>
</g>
<g>
	<g>
		<path d="M115.401,171.716c-1.411-11.518-1.381-22.885-0.073-33.928c-0.268-0.145-0.544-0.276-0.815-0.417
			c0.386-0.644,0.758-1.299,1.113-1.963c1.119-8.235,2.957-16.276,5.452-24.055c-1.094-24.795-21.6-44.632-46.661-44.632
			c-25.758,0-46.715,20.956-46.715,46.715c0,8.768,2.433,16.977,6.653,23.996c-20.324,10.684-34.225,32-34.225,56.515v15.01h125.091
			C120.373,197.313,117.008,184.833,115.401,171.716z"/>
	</g>
</g>
<g>
	<g>
		<path d="M162.913,300.109l19.171-24.768c-8.549-5.253-16.527-11.393-23.789-18.312l-19.299,24.931l-25.754-19.543L0,407.269
			l73.902,57.774l114.075-145.916L162.913,300.109z"/>
	</g>
</g>
<g>
	<g>
		<path d="M367.172,140.882c-6.933-56.604-55.264-98.231-110.906-98.231c-4.516,0-9.078,0.274-13.674,0.837
			c-61.198,7.495-104.887,63.381-97.393,124.579c7.495,61.199,63.394,104.88,124.579,97.393
			c29.645-3.63,56.102-18.589,74.497-42.118C362.672,199.812,370.802,170.527,367.172,140.882z M328.924,206.955h-0.001H184.202
			v-13.009c0-24.518,14.348-45.747,35.089-55.734c-4.743-7.098-7.515-15.619-7.515-24.777c0-24.655,20.058-44.713,44.713-44.713
			s44.713,20.058,44.713,44.713c0,9.136-2.76,17.638-7.482,24.725c20.802,9.964,35.205,31.223,35.205,55.787V206.955z"/>
	</g>
</g>
<g>
</g>
<g>
</g>
<g>
</g>
<g>
</g>
<g>
</g>
<g>
</g>
<g>
</g>
<g>
</g>
<g>
</g>
<g>
</g>
<g>
</g>
<g>
</g>
<g>
</g>
<g>
</g>
<g>
</g>
</svg>
